<svg width="488" height="103" viewBox="0 0 488 103" fill="none" xmlns="http://www.w3.org/2000/svg">
<path d="M232.375 41.5C232.225 41.05 231.925 40.15 231.625 38.95C231.25 37.75 230.95 36.925 230.8 36.325C230.65 35.725 230.35 34.975 230.05 34C229.75 33.025 229.45 32.275 229.225 31.675C228.925 31.075 228.625 30.475 228.325 29.725C227.95 28.975 227.575 28.375 227.2 27.85C226.825 27.4 226.45 26.95 226 26.5H252.25C251.65 27.85 251.425 29.425 251.5 31.225C251.5 33.1 251.65 34.6 251.95 35.8C252.175 37 252.625 38.95 253.375 41.5C253.675 42.7 254.125 44.65 254.875 47.35C255.55 50.05 256.075 52.225 256.525 53.725C256.975 55.3 257.5 57.25 258.175 59.65C258.85 62.05 259.45 64 259.975 65.425C260.425 66.925 261.025 68.35 261.625 69.775C262.225 71.275 262.825 72.325 263.425 73C263.95 73.75 264.475 74.05 265 74.05C266.275 74.05 267.475 72.25 268.675 68.65C269.8 65.05 270.4 61.15 270.4 56.95C270.4 53.95 270.025 51.325 269.35 49C268.675 46.75 267.85 44.95 266.875 43.75C265.825 42.55 264.775 41.425 263.575 40.525C262.375 39.625 261.325 39.025 260.35 38.575C259.3 38.125 258.475 37.675 257.8 37.15C257.125 36.7 256.825 36.175 256.825 35.575C256.825 33.25 258.7 31 262.525 28.75C266.35 26.5 270.25 25.375 274.225 25.375C276.925 25.375 279.025 26.35 280.375 28.15C281.725 30.025 282.4 32.275 282.4 34.975C282.4 36.4 282.175 38.125 281.725 40.15C281.275 42.175 280.6 44.725 279.625 47.8C278.65 50.95 277.825 53.575 277.075 55.675C276.325 57.85 275.2 61.075 273.7 65.35C272.2 69.7 271.15 72.7 270.55 74.5C270.175 75.625 269.8 76.525 269.35 77.125C268.9 77.8 268.375 78.25 267.775 78.475C267.175 78.775 266.65 78.925 266.35 78.925C265.975 79 265.45 79 264.7 79H248.275C246.925 79 245.65 78.55 244.6 77.65C243.55 76.75 242.575 75.325 241.825 73.45C241 71.575 240.4 69.925 239.95 68.5C239.5 67.075 238.975 65.125 238.375 62.65C238.3 62.5 238.225 62.35 238.225 62.2C238.225 62.05 238.15 61.9 238.15 61.675C238.075 61.525 238 61.3 238 61.15C237.025 57.55 235.15 50.95 232.375 41.5ZM286.176 54.175C286.176 45.7 288.501 38.8 293.226 33.4C297.951 28.075 304.551 25.375 313.101 25.375C319.476 25.375 324.576 27.4 328.326 31.3C332.076 35.275 334.026 40 334.026 45.4C334.026 47.125 333.726 48.625 333.126 49.825C332.526 51.1 331.626 52.075 330.426 52.75C329.151 53.5 327.876 54.025 326.601 54.4C325.251 54.85 323.601 55.075 321.576 55.15C319.476 55.225 317.676 55.225 316.176 55.225C314.601 55.225 312.576 55.15 310.176 55.075C307.776 55 305.826 54.925 304.476 54.925C303.276 54.925 302.751 55.375 302.751 56.125C302.751 57.025 303.801 58.3 306.051 59.95C308.226 61.6 311.001 63.175 314.376 64.525C317.676 65.875 320.751 66.55 323.451 66.55C325.551 66.55 327.276 66.25 328.626 65.575C329.976 64.975 331.026 64.3 331.701 63.625C332.376 63.025 332.901 62.65 333.201 62.65C333.951 62.65 334.401 63.175 334.401 64.225C334.401 65.725 333.951 67.375 333.126 69.175C332.226 70.975 331.026 72.7 329.451 74.35C327.801 76 325.626 77.425 322.851 78.475C320.076 79.6 317.001 80.125 313.626 80.125C306.276 80.125 299.826 77.65 294.351 72.625C288.876 67.6 286.176 61.45 286.176 54.175ZM294.576 40.45C294.576 43.45 295.251 46 296.676 48.1C298.101 50.275 300.276 51.325 303.126 51.325C305.151 51.325 306.951 51.325 308.526 51.175C310.101 51.025 311.676 50.8 313.326 50.425C314.976 50.125 316.251 49.525 317.151 48.7C318.051 47.95 318.501 46.9 318.501 45.7C318.501 42.1 316.851 39.175 313.551 36.925C310.251 34.675 306.801 33.55 303.201 33.55C300.951 33.55 298.926 34.225 297.201 35.5C295.401 36.775 294.576 38.425 294.576 40.45ZM336.687 79C338.412 77.275 339.312 74.35 339.312 70.15V35.35C339.312 31.225 338.412 28.3 336.687 26.5H355.062C356.562 26.5 357.687 27.025 358.287 28.075C358.887 29.125 359.187 30.7 359.187 32.725V34C359.187 35.2 359.337 35.8 359.712 35.8C360.162 35.8 360.612 35.5 361.212 34.75C361.812 34 362.412 33.175 363.162 32.125C363.912 31.075 364.737 30.1 365.787 29.05C366.837 28.075 368.187 27.25 369.987 26.5C371.712 25.75 373.662 25.375 375.912 25.375C378.162 25.375 380.262 25.825 382.287 26.65C384.237 27.475 385.287 28.525 385.287 29.875C385.287 30.175 383.937 33.025 381.237 38.425C381.012 38.875 380.712 39.475 380.337 40.225C379.962 40.975 379.662 41.5 379.512 41.875C379.287 42.325 379.062 42.775 378.762 43.375C378.462 43.975 378.162 44.425 378.012 44.725C377.787 45.025 377.562 45.325 377.337 45.625C377.037 45.925 376.812 46.15 376.662 46.3C376.437 46.45 376.212 46.525 376.062 46.525C375.312 46.525 374.712 46.225 374.187 45.55C373.587 44.875 373.137 44.125 372.762 43.225C372.312 42.4 371.562 41.65 370.512 40.975C369.387 40.3 368.037 39.925 366.387 39.925C361.587 39.925 359.187 43.225 359.187 49.75V70.15C359.187 74.35 360.012 77.275 361.812 79H336.687ZM386.061 41.5C386.061 38.5 386.736 35.95 388.161 33.775C389.586 31.6 391.536 29.95 393.936 28.75C396.336 27.55 398.886 26.725 401.586 26.2C404.286 25.675 407.136 25.375 410.211 25.375C416.661 25.375 422.286 26.35 427.086 28.225C431.886 30.1 434.286 32.125 434.286 34.375C434.286 36.775 433.461 39.1 431.886 41.275C430.236 43.525 428.736 44.575 427.311 44.575C425.061 44.575 422.736 43.825 420.261 42.25C417.786 40.75 415.611 39.025 413.811 37.225C411.936 35.425 409.836 33.7 407.436 32.125C405.036 30.625 402.861 29.8 400.761 29.8C399.186 29.8 397.761 30.25 396.561 31.15C395.361 32.05 394.761 33.325 394.761 34.975C394.761 36.7 395.736 38.05 397.686 38.95C399.636 39.85 402.411 40.675 406.086 41.275C409.161 41.875 411.861 42.4 414.111 42.925C416.361 43.525 418.911 44.35 421.611 45.4C424.311 46.525 426.486 47.8 428.136 49.15C429.786 50.5 431.211 52.3 432.411 54.475C433.536 56.725 434.136 59.2 434.136 61.975C434.136 65.275 433.311 68.2 431.811 70.675C430.311 73.15 428.361 75.025 425.961 76.3C423.561 77.65 421.161 78.625 418.761 79.225C416.361 79.825 413.961 80.125 411.636 80.125C406.011 80.125 400.386 79.45 394.836 78.1C389.211 76.75 386.436 75.175 386.436 73.375C386.436 71.5 387.261 68.725 388.986 64.975C390.636 61.225 392.211 59.35 393.636 59.35C394.536 59.35 395.886 59.875 397.686 60.925C399.411 61.975 401.211 63.1 403.086 64.3C404.886 65.575 407.361 66.7 410.361 67.75C413.361 68.8 416.361 69.25 419.511 69.25C422.211 69.25 424.611 68.575 426.786 67.225C428.961 65.875 430.086 64.3 430.086 62.35C430.086 60.85 429.036 60.025 426.936 60.025C426.186 60.025 424.386 60.25 421.536 60.55C418.686 60.85 416.136 61 414.036 61C411.486 61 408.936 60.85 406.461 60.4C403.911 60.025 401.436 59.35 398.961 58.375C396.411 57.4 394.236 56.2 392.361 54.775C390.486 53.35 388.986 51.475 387.786 49.15C386.586 46.9 386.061 44.35 386.061 41.5ZM437.274 54.175C437.274 45.7 439.599 38.8 444.324 33.4C449.049 28.075 455.649 25.375 464.199 25.375C470.574 25.375 475.674 27.4 479.424 31.3C483.174 35.275 485.124 40 485.124 45.4C485.124 47.125 484.824 48.625 484.224 49.825C483.624 51.1 482.724 52.075 481.524 52.75C480.249 53.5 478.974 54.025 477.699 54.4C476.349 54.85 474.699 55.075 472.674 55.15C470.574 55.225 468.774 55.225 467.274 55.225C465.699 55.225 463.674 55.15 461.274 55.075C458.874 55 456.924 54.925 455.574 54.925C454.374 54.925 453.849 55.375 453.849 56.125C453.849 57.025 454.899 58.3 457.149 59.95C459.324 61.6 462.099 63.175 465.474 64.525C468.774 65.875 471.849 66.55 474.549 66.55C476.649 66.55 478.374 66.25 479.724 65.575C481.074 64.975 482.124 64.3 482.799 63.625C483.474 63.025 483.999 62.65 484.299 62.65C485.049 62.65 485.499 63.175 485.499 64.225C485.499 65.725 485.049 67.375 484.224 69.175C483.324 70.975 482.124 72.7 480.549 74.35C478.899 76 476.724 77.425 473.949 78.475C471.174 79.6 468.099 80.125 464.724 80.125C457.374 80.125 450.924 77.65 445.449 72.625C439.974 67.6 437.274 61.45 437.274 54.175ZM445.674 40.45C445.674 43.45 446.349 46 447.774 48.1C449.199 50.275 451.374 51.325 454.224 51.325C456.249 51.325 458.049 51.325 459.624 51.175C461.199 51.025 462.774 50.8 464.424 50.425C466.074 50.125 467.349 49.525 468.249 48.7C469.149 47.95 469.599 46.9 469.599 45.7C469.599 42.1 467.949 39.175 464.649 36.925C461.349 34.675 457.899 33.55 454.299 33.55C452.049 33.55 450.024 34.225 448.299 35.5C446.499 36.775 445.674 38.425 445.674 40.45Z" fill="white"/>
<path d="M26.625 79H1.5C3.225 77.275 4.125 74.35 4.125 70.15V35.35C4.125 31.225 3.225 28.3 1.5 26.5H19.875C21.375 26.5 22.5 27.025 23.1 28.075C23.7 29.125 24 30.7 24 32.725V34C24 35.2 24.15 35.8 24.525 35.8C25.05 35.8 25.65 35.5 26.25 34.75C26.85 34 27.525 33.175 28.35 32.125C29.1 31.075 30.075 30.1 31.125 29.05C32.175 28.075 33.6 27.25 35.475 26.5C37.35 25.75 39.45 25.375 41.85 25.375C48.15 25.375 52.125 28.6 53.775 34.975C54.075 35.575 54.525 35.8 55.2 35.8C55.725 35.8 56.325 35.5 56.925 34.75C57.525 34 58.2 33.175 59.025 32.125C59.775 31.075 60.75 30.1 61.8 29.05C62.85 28.075 64.275 27.25 66.15 26.5C68.025 25.75 70.125 25.375 72.525 25.375C81.075 25.375 85.35 31.3 85.35 43L85.425 57.325V70.15C85.425 74.35 86.25 77.275 88.05 79H62.925C64.65 77.275 65.55 74.35 65.55 70.15V45.775C65.55 41.35 64.125 39.1 61.275 39.1C57.15 39.1 54.975 42.25 54.675 48.4L54.75 57.325V70.15C54.75 74.35 55.575 77.275 57.375 79H32.25C33.975 77.275 34.875 74.35 34.875 70.15V45.775C34.875 41.35 33.45 39.1 30.6 39.1C26.175 39.1 24 42.7 24 49.75V70.15C24 74.35 24.825 77.275 26.625 79ZM90.2783 54.175C90.2783 45.7 92.6033 38.8 97.3283 33.4C102.053 28.075 108.653 25.375 117.203 25.375C123.578 25.375 128.678 27.4 132.428 31.3C136.178 35.275 138.128 40 138.128 45.4C138.128 47.125 137.828 48.625 137.228 49.825C136.628 51.1 135.728 52.075 134.528 52.75C133.253 53.5 131.978 54.025 130.703 54.4C129.353 54.85 127.703 55.075 125.678 55.15C123.578 55.225 121.778 55.225 120.278 55.225C118.703 55.225 116.678 55.15 114.278 55.075C111.878 55 109.928 54.925 108.578 54.925C107.378 54.925 106.853 55.375 106.853 56.125C106.853 57.025 107.903 58.3 110.153 59.95C112.328 61.6 115.103 63.175 118.478 64.525C121.778 65.875 124.853 66.55 127.553 66.55C129.653 66.55 131.378 66.25 132.728 65.575C134.078 64.975 135.128 64.3 135.803 63.625C136.478 63.025 137.003 62.65 137.303 62.65C138.053 62.65 138.503 63.175 138.503 64.225C138.503 65.725 138.053 67.375 137.228 69.175C136.328 70.975 135.128 72.7 133.553 74.35C131.903 76 129.728 77.425 126.953 78.475C124.178 79.6 121.103 80.125 117.728 80.125C110.378 80.125 103.928 77.65 98.4533 72.625C92.9783 67.6 90.2783 61.45 90.2783 54.175ZM98.6783 40.45C98.6783 43.45 99.3533 46 100.778 48.1C102.203 50.275 104.378 51.325 107.228 51.325C109.253 51.325 111.053 51.325 112.628 51.175C114.203 51.025 115.778 50.8 117.428 50.425C119.078 50.125 120.353 49.525 121.253 48.7C122.153 47.95 122.603 46.9 122.603 45.7C122.603 42.1 120.953 39.175 117.653 36.925C114.353 34.675 110.903 33.55 107.303 33.55C105.053 33.55 103.028 34.225 101.303 35.5C99.5033 36.775 98.6783 38.425 98.6783 40.45ZM140.414 13.075C139.664 12.85 139.289 12.475 139.289 12.025C139.289 11.725 139.514 11.35 140.114 11.05C151.289 5.65 158.339 2.87499 161.264 2.87499C161.939 2.87499 162.464 3.09999 162.839 3.4C163.139 3.69999 163.364 4.07499 163.439 4.375C163.439 4.675 163.514 5.2 163.514 5.79999V70.15C163.514 74.35 164.339 77.275 166.139 79H147.764C146.189 79 145.139 78.55 144.539 77.5C143.939 76.45 143.639 74.95 143.639 72.85V18.85V18.475V17.875C143.639 17.725 143.564 17.5 143.564 17.2C143.564 16.9 143.489 16.6 143.489 16.375C143.414 16.225 143.339 15.925 143.264 15.625C143.114 15.325 142.964 15.025 142.814 14.8C142.664 14.575 142.439 14.35 142.214 14.125C141.989 13.9 141.764 13.675 141.464 13.525C141.164 13.375 140.789 13.225 140.414 13.075ZM176.444 72.4C171.194 67.15 168.644 60.7 168.794 53.2C168.869 45.7 171.644 39.175 177.044 33.7C182.519 28.225 189.044 25.45 196.619 25.45C203.894 25.45 210.119 28.075 215.219 33.175C220.394 38.425 222.944 44.875 222.794 52.375C222.644 59.875 219.944 66.4 214.619 71.8C209.069 77.35 202.544 80.125 195.044 80.125C187.694 80.125 181.544 77.575 176.444 72.4ZM192.194 29.425C189.719 29.8 187.994 32.425 186.944 37.3C185.894 42.175 185.894 47.875 186.944 54.4C187.919 60.925 189.644 66.325 192.044 70.675C194.444 75.025 196.919 76.975 199.394 76.525C201.794 76.15 203.444 73.525 204.494 68.725C205.469 63.925 205.469 58.15 204.569 51.55C203.594 45.1 201.869 39.7 199.469 35.35C197.069 31 194.594 29.05 192.194 29.425Z" fill="white"/>
<circle cx="198" cy="51" r="31" fill="#312D2D"/>
<g style="mix-blend-mode:multiply">
<g filter="url(#filter0_i_99_179)">
<ellipse cx="198" cy="50.4366" rx="23.1091" ry="23.6727" fill="#D9D9D9"/>
</g>
<path d="M220.609 50.4366C220.609 63.246 210.475 73.6094 198 73.6094C185.525 73.6094 175.391 63.246 175.391 50.4366C175.391 37.6273 185.525 27.2639 198 27.2639C210.475 27.2639 220.609 37.6273 220.609 50.4366Z" stroke="white"/>
</g>
<g style="mix-blend-mode:multiply">
<path d="M214.973 51.0001C214.973 60.3894 207.611 67.9728 198.564 67.9728C189.516 67.9728 182.155 60.3894 182.155 51.0001C182.155 41.6107 189.516 34.0273 198.564 34.0273C207.611 34.0273 214.973 41.6107 214.973 51.0001Z" fill="#D9D9D9"/>
<path d="M214.973 51.0001C214.973 60.3894 207.611 67.9728 198.564 67.9728C189.516 67.9728 182.155 60.3894 182.155 51.0001C182.155 41.6107 189.516 34.0273 198.564 34.0273C207.611 34.0273 214.973 41.6107 214.973 51.0001Z" fill="black" fill-opacity="0.2"/>
<path d="M214.973 51.0001C214.973 60.3894 207.611 67.9728 198.564 67.9728C189.516 67.9728 182.155 60.3894 182.155 51.0001C182.155 41.6107 189.516 34.0273 198.564 34.0273C207.611 34.0273 214.973 41.6107 214.973 51.0001Z" stroke="white"/>
</g>
<path d="M175.355 38.5871C176.828 35.763 187.288 40.8158 194.446 38.7291C201.593 36.6456 207.948 27.0773 210.451 28.3737C212.953 29.6701 208.109 40.2483 210.16 47.3839C212.234 54.5943 222.081 60.9515 220.664 63.4699C219.248 65.9882 208.589 61.1959 201.367 63.3494C194.302 65.4562 188.232 75.1504 185.568 73.6832C182.904 72.2161 187.711 61.8189 185.653 54.6945C183.581 47.5216 173.881 41.4111 175.355 38.5871Z" fill="#6478B5"/>
<circle cx="198" cy="51.0002" r="5.07273" fill="#CAE2ED" fill-opacity="0.42"/>
<circle cx="198" cy="51" r="1.69091" fill="white"/>
<defs>
<filter id="filter0_i_99_179" x="174.891" y="26.7639" width="46.2181" height="51.3455" filterUnits="userSpaceOnUse" color-interpolation-filters="sRGB">
<feFlood flood-opacity="0" result="BackgroundImageFix"/>
<feBlend mode="normal" in="SourceGraphic" in2="BackgroundImageFix" result="shape"/>
<feColorMatrix in="SourceAlpha" type="matrix" values="0 0 0 0 0 0 0 0 0 0 0 0 0 0 0 0 0 0 127 0" result="hardAlpha"/>
<feOffset dy="4"/>
<feGaussianBlur stdDeviation="2"/>
<feComposite in2="hardAlpha" operator="arithmetic" k2="-1" k3="1"/>
<feColorMatrix type="matrix" values="0 0 0 0 0 0 0 0 0 0 0 0 0 0 0 0 0 0 0.25 0"/>
<feBlend mode="normal" in2="shape" result="effect1_innerShadow_99_179"/>
</filter>
</defs>
</svg>
